<?xml version="1.0" encoding="utf-8" standalone="no"?>
<!DOCTYPE svg PUBLIC "-//W3C//DTD SVG 1.1//EN"
  "http://www.w3.org/Graphics/SVG/1.1/DTD/svg11.dtd">
<svg xmlns:xlink="http://www.w3.org/1999/xlink" width="242.146875pt" height="183.35625pt" viewBox="0 0 242.146875 183.35625" xmlns="http://www.w3.org/2000/svg" version="1.1">
 <metadata>
  <rdf:RDF xmlns:dc="http://purl.org/dc/elements/1.1/" xmlns:cc="http://creativecommons.org/ns#" xmlns:rdf="http://www.w3.org/1999/02/22-rdf-syntax-ns#">
   <cc:Work>
    <dc:type rdf:resource="http://purl.org/dc/dcmitype/StillImage"/>
    <dc:date>2022-11-07T17:14:00.894287</dc:date>
    <dc:format>image/svg+xml</dc:format>
    <dc:creator>
     <cc:Agent>
      <dc:title>Matplotlib v3.5.1, https://matplotlib.org/</dc:title>
     </cc:Agent>
    </dc:creator>
   </cc:Work>
  </rdf:RDF>
 </metadata>
 <defs>
  <style type="text/css">*{stroke-linejoin: round; stroke-linecap: butt}</style>
 </defs>
 <g id="figure_1">
  <g id="patch_1">
   <path d="M 0 183.35625 
L 242.146875 183.35625 
L 242.146875 0 
L 0 0 
z
" style="fill: #ffffff"/>
  </g>
  <g id="axes_1">
   <g id="patch_2">
    <path d="M 30.103125 145.8 
L 225.403125 145.8 
L 225.403125 7.2 
L 30.103125 7.2 
z
" style="fill: #ffffff"/>
   </g>
   <g id="matplotlib.axis_1">
    <g id="xtick_1">
     <g id="line2d_1">
      <path d="M 67.584943 145.8 
L 67.584943 7.2 
" clip-path="url(#p63f417431b)" style="fill: none; stroke: #b0b0b0; stroke-width: 0.8; stroke-linecap: square"/>
     </g>
     <g id="line2d_2">
      <defs>
       <path id="mff9b71930a" d="M 0 0 
L 0 3.5 
" style="stroke: #000000; stroke-width: 0.8"/>
      </defs>
      <g>
       <use xlink:href="#mff9b71930a" x="67.584943" y="145.8" style="stroke: #000000; stroke-width: 0.8"/>
      </g>
     </g>
     <g id="text_1">
      <!-- 20 -->
      <g transform="translate(61.222443 160.398438)scale(0.1 -0.1)">
       <defs>
        <path id="DejaVuSans-32" d="M 1228 531 
L 3431 531 
L 3431 0 
L 469 0 
L 469 531 
Q 828 903 1448 1529 
Q 2069 2156 2228 2338 
Q 2531 2678 2651 2914 
Q 2772 3150 2772 3378 
Q 2772 3750 2511 3984 
Q 2250 4219 1831 4219 
Q 1534 4219 1204 4116 
Q 875 4013 500 3803 
L 500 4441 
Q 881 4594 1212 4672 
Q 1544 4750 1819 4750 
Q 2544 4750 2975 4387 
Q 3406 4025 3406 3419 
Q 3406 3131 3298 2873 
Q 3191 2616 2906 2266 
Q 2828 2175 2409 1742 
Q 1991 1309 1228 531 
z
" transform="scale(0.015625)"/>
        <path id="DejaVuSans-30" d="M 2034 4250 
Q 1547 4250 1301 3770 
Q 1056 3291 1056 2328 
Q 1056 1369 1301 889 
Q 1547 409 2034 409 
Q 2525 409 2770 889 
Q 3016 1369 3016 2328 
Q 3016 3291 2770 3770 
Q 2525 4250 2034 4250 
z
M 2034 4750 
Q 2819 4750 3233 4129 
Q 3647 3509 3647 2328 
Q 3647 1150 3233 529 
Q 2819 -91 2034 -91 
Q 1250 -91 836 529 
Q 422 1150 422 2328 
Q 422 3509 836 4129 
Q 1250 4750 2034 4750 
z
" transform="scale(0.015625)"/>
       </defs>
       <use xlink:href="#DejaVuSans-32"/>
       <use xlink:href="#DejaVuSans-30" x="63.623047"/>
      </g>
     </g>
    </g>
    <g id="xtick_2">
     <g id="line2d_3">
      <path d="M 107.039489 145.8 
L 107.039489 7.2 
" clip-path="url(#p63f417431b)" style="fill: none; stroke: #b0b0b0; stroke-width: 0.8; stroke-linecap: square"/>
     </g>
     <g id="line2d_4">
      <g>
       <use xlink:href="#mff9b71930a" x="107.039489" y="145.8" style="stroke: #000000; stroke-width: 0.8"/>
      </g>
     </g>
     <g id="text_2">
      <!-- 40 -->
      <g transform="translate(100.676989 160.398438)scale(0.1 -0.1)">
       <defs>
        <path id="DejaVuSans-34" d="M 2419 4116 
L 825 1625 
L 2419 1625 
L 2419 4116 
z
M 2253 4666 
L 3047 4666 
L 3047 1625 
L 3713 1625 
L 3713 1100 
L 3047 1100 
L 3047 0 
L 2419 0 
L 2419 1100 
L 313 1100 
L 313 1709 
L 2253 4666 
z
" transform="scale(0.015625)"/>
       </defs>
       <use xlink:href="#DejaVuSans-34"/>
       <use xlink:href="#DejaVuSans-30" x="63.623047"/>
      </g>
     </g>
    </g>
    <g id="xtick_3">
     <g id="line2d_5">
      <path d="M 146.494034 145.8 
L 146.494034 7.2 
" clip-path="url(#p63f417431b)" style="fill: none; stroke: #b0b0b0; stroke-width: 0.8; stroke-linecap: square"/>
     </g>
     <g id="line2d_6">
      <g>
       <use xlink:href="#mff9b71930a" x="146.494034" y="145.8" style="stroke: #000000; stroke-width: 0.8"/>
      </g>
     </g>
     <g id="text_3">
      <!-- 60 -->
      <g transform="translate(140.131534 160.398438)scale(0.1 -0.1)">
       <defs>
        <path id="DejaVuSans-36" d="M 2113 2584 
Q 1688 2584 1439 2293 
Q 1191 2003 1191 1497 
Q 1191 994 1439 701 
Q 1688 409 2113 409 
Q 2538 409 2786 701 
Q 3034 994 3034 1497 
Q 3034 2003 2786 2293 
Q 2538 2584 2113 2584 
z
M 3366 4563 
L 3366 3988 
Q 3128 4100 2886 4159 
Q 2644 4219 2406 4219 
Q 1781 4219 1451 3797 
Q 1122 3375 1075 2522 
Q 1259 2794 1537 2939 
Q 1816 3084 2150 3084 
Q 2853 3084 3261 2657 
Q 3669 2231 3669 1497 
Q 3669 778 3244 343 
Q 2819 -91 2113 -91 
Q 1303 -91 875 529 
Q 447 1150 447 2328 
Q 447 3434 972 4092 
Q 1497 4750 2381 4750 
Q 2619 4750 2861 4703 
Q 3103 4656 3366 4563 
z
" transform="scale(0.015625)"/>
       </defs>
       <use xlink:href="#DejaVuSans-36"/>
       <use xlink:href="#DejaVuSans-30" x="63.623047"/>
      </g>
     </g>
    </g>
    <g id="xtick_4">
     <g id="line2d_7">
      <path d="M 185.94858 145.8 
L 185.94858 7.2 
" clip-path="url(#p63f417431b)" style="fill: none; stroke: #b0b0b0; stroke-width: 0.8; stroke-linecap: square"/>
     </g>
     <g id="line2d_8">
      <g>
       <use xlink:href="#mff9b71930a" x="185.94858" y="145.8" style="stroke: #000000; stroke-width: 0.8"/>
      </g>
     </g>
     <g id="text_4">
      <!-- 80 -->
      <g transform="translate(179.58608 160.398438)scale(0.1 -0.1)">
       <defs>
        <path id="DejaVuSans-38" d="M 2034 2216 
Q 1584 2216 1326 1975 
Q 1069 1734 1069 1313 
Q 1069 891 1326 650 
Q 1584 409 2034 409 
Q 2484 409 2743 651 
Q 3003 894 3003 1313 
Q 3003 1734 2745 1975 
Q 2488 2216 2034 2216 
z
M 1403 2484 
Q 997 2584 770 2862 
Q 544 3141 544 3541 
Q 544 4100 942 4425 
Q 1341 4750 2034 4750 
Q 2731 4750 3128 4425 
Q 3525 4100 3525 3541 
Q 3525 3141 3298 2862 
Q 3072 2584 2669 2484 
Q 3125 2378 3379 2068 
Q 3634 1759 3634 1313 
Q 3634 634 3220 271 
Q 2806 -91 2034 -91 
Q 1263 -91 848 271 
Q 434 634 434 1313 
Q 434 1759 690 2068 
Q 947 2378 1403 2484 
z
M 1172 3481 
Q 1172 3119 1398 2916 
Q 1625 2713 2034 2713 
Q 2441 2713 2670 2916 
Q 2900 3119 2900 3481 
Q 2900 3844 2670 4047 
Q 2441 4250 2034 4250 
Q 1625 4250 1398 4047 
Q 1172 3844 1172 3481 
z
" transform="scale(0.015625)"/>
       </defs>
       <use xlink:href="#DejaVuSans-38"/>
       <use xlink:href="#DejaVuSans-30" x="63.623047"/>
      </g>
     </g>
    </g>
    <g id="xtick_5">
     <g id="line2d_9">
      <path d="M 225.403125 145.8 
L 225.403125 7.2 
" clip-path="url(#p63f417431b)" style="fill: none; stroke: #b0b0b0; stroke-width: 0.8; stroke-linecap: square"/>
     </g>
     <g id="line2d_10">
      <g>
       <use xlink:href="#mff9b71930a" x="225.403125" y="145.8" style="stroke: #000000; stroke-width: 0.8"/>
      </g>
     </g>
     <g id="text_5">
      <!-- 100 -->
      <g transform="translate(215.859375 160.398438)scale(0.1 -0.1)">
       <defs>
        <path id="DejaVuSans-31" d="M 794 531 
L 1825 531 
L 1825 4091 
L 703 3866 
L 703 4441 
L 1819 4666 
L 2450 4666 
L 2450 531 
L 3481 531 
L 3481 0 
L 794 0 
L 794 531 
z
" transform="scale(0.015625)"/>
       </defs>
       <use xlink:href="#DejaVuSans-31"/>
       <use xlink:href="#DejaVuSans-30" x="63.623047"/>
       <use xlink:href="#DejaVuSans-30" x="127.246094"/>
      </g>
     </g>
    </g>
    <g id="text_6">
     <!-- epoch -->
     <g transform="translate(112.525 174.076563)scale(0.1 -0.1)">
      <defs>
       <path id="DejaVuSans-65" d="M 3597 1894 
L 3597 1613 
L 953 1613 
Q 991 1019 1311 708 
Q 1631 397 2203 397 
Q 2534 397 2845 478 
Q 3156 559 3463 722 
L 3463 178 
Q 3153 47 2828 -22 
Q 2503 -91 2169 -91 
Q 1331 -91 842 396 
Q 353 884 353 1716 
Q 353 2575 817 3079 
Q 1281 3584 2069 3584 
Q 2775 3584 3186 3129 
Q 3597 2675 3597 1894 
z
M 3022 2063 
Q 3016 2534 2758 2815 
Q 2500 3097 2075 3097 
Q 1594 3097 1305 2825 
Q 1016 2553 972 2059 
L 3022 2063 
z
" transform="scale(0.015625)"/>
       <path id="DejaVuSans-70" d="M 1159 525 
L 1159 -1331 
L 581 -1331 
L 581 3500 
L 1159 3500 
L 1159 2969 
Q 1341 3281 1617 3432 
Q 1894 3584 2278 3584 
Q 2916 3584 3314 3078 
Q 3713 2572 3713 1747 
Q 3713 922 3314 415 
Q 2916 -91 2278 -91 
Q 1894 -91 1617 61 
Q 1341 213 1159 525 
z
M 3116 1747 
Q 3116 2381 2855 2742 
Q 2594 3103 2138 3103 
Q 1681 3103 1420 2742 
Q 1159 2381 1159 1747 
Q 1159 1113 1420 752 
Q 1681 391 2138 391 
Q 2594 391 2855 752 
Q 3116 1113 3116 1747 
z
" transform="scale(0.015625)"/>
       <path id="DejaVuSans-6f" d="M 1959 3097 
Q 1497 3097 1228 2736 
Q 959 2375 959 1747 
Q 959 1119 1226 758 
Q 1494 397 1959 397 
Q 2419 397 2687 759 
Q 2956 1122 2956 1747 
Q 2956 2369 2687 2733 
Q 2419 3097 1959 3097 
z
M 1959 3584 
Q 2709 3584 3137 3096 
Q 3566 2609 3566 1747 
Q 3566 888 3137 398 
Q 2709 -91 1959 -91 
Q 1206 -91 779 398 
Q 353 888 353 1747 
Q 353 2609 779 3096 
Q 1206 3584 1959 3584 
z
" transform="scale(0.015625)"/>
       <path id="DejaVuSans-63" d="M 3122 3366 
L 3122 2828 
Q 2878 2963 2633 3030 
Q 2388 3097 2138 3097 
Q 1578 3097 1268 2742 
Q 959 2388 959 1747 
Q 959 1106 1268 751 
Q 1578 397 2138 397 
Q 2388 397 2633 464 
Q 2878 531 3122 666 
L 3122 134 
Q 2881 22 2623 -34 
Q 2366 -91 2075 -91 
Q 1284 -91 818 406 
Q 353 903 353 1747 
Q 353 2603 823 3093 
Q 1294 3584 2113 3584 
Q 2378 3584 2631 3529 
Q 2884 3475 3122 3366 
z
" transform="scale(0.015625)"/>
       <path id="DejaVuSans-68" d="M 3513 2113 
L 3513 0 
L 2938 0 
L 2938 2094 
Q 2938 2591 2744 2837 
Q 2550 3084 2163 3084 
Q 1697 3084 1428 2787 
Q 1159 2491 1159 1978 
L 1159 0 
L 581 0 
L 581 4863 
L 1159 4863 
L 1159 2956 
Q 1366 3272 1645 3428 
Q 1925 3584 2291 3584 
Q 2894 3584 3203 3211 
Q 3513 2838 3513 2113 
z
" transform="scale(0.015625)"/>
      </defs>
      <use xlink:href="#DejaVuSans-65"/>
      <use xlink:href="#DejaVuSans-70" x="61.523438"/>
      <use xlink:href="#DejaVuSans-6f" x="125"/>
      <use xlink:href="#DejaVuSans-63" x="186.181641"/>
      <use xlink:href="#DejaVuSans-68" x="241.162109"/>
     </g>
    </g>
   </g>
   <g id="matplotlib.axis_2">
    <g id="ytick_1">
     <g id="line2d_11">
      <path d="M 30.103125 141.128482 
L 225.403125 141.128482 
" clip-path="url(#p63f417431b)" style="fill: none; stroke: #b0b0b0; stroke-width: 0.8; stroke-linecap: square"/>
     </g>
     <g id="line2d_12">
      <defs>
       <path id="me46368e211" d="M 0 0 
L -3.5 0 
" style="stroke: #000000; stroke-width: 0.8"/>
      </defs>
      <g>
       <use xlink:href="#me46368e211" x="30.103125" y="141.128482" style="stroke: #000000; stroke-width: 0.8"/>
      </g>
     </g>
     <g id="text_7">
      <!-- 0.0 -->
      <g transform="translate(7.2 144.927701)scale(0.1 -0.1)">
       <defs>
        <path id="DejaVuSans-2e" d="M 684 794 
L 1344 794 
L 1344 0 
L 684 0 
L 684 794 
z
" transform="scale(0.015625)"/>
       </defs>
       <use xlink:href="#DejaVuSans-30"/>
       <use xlink:href="#DejaVuSans-2e" x="63.623047"/>
       <use xlink:href="#DejaVuSans-30" x="95.410156"/>
      </g>
     </g>
    </g>
    <g id="ytick_2">
     <g id="line2d_13">
      <path d="M 30.103125 113.295613 
L 225.403125 113.295613 
" clip-path="url(#p63f417431b)" style="fill: none; stroke: #b0b0b0; stroke-width: 0.8; stroke-linecap: square"/>
     </g>
     <g id="line2d_14">
      <g>
       <use xlink:href="#me46368e211" x="30.103125" y="113.295613" style="stroke: #000000; stroke-width: 0.8"/>
      </g>
     </g>
     <g id="text_8">
      <!-- 0.5 -->
      <g transform="translate(7.2 117.094832)scale(0.1 -0.1)">
       <defs>
        <path id="DejaVuSans-35" d="M 691 4666 
L 3169 4666 
L 3169 4134 
L 1269 4134 
L 1269 2991 
Q 1406 3038 1543 3061 
Q 1681 3084 1819 3084 
Q 2600 3084 3056 2656 
Q 3513 2228 3513 1497 
Q 3513 744 3044 326 
Q 2575 -91 1722 -91 
Q 1428 -91 1123 -41 
Q 819 9 494 109 
L 494 744 
Q 775 591 1075 516 
Q 1375 441 1709 441 
Q 2250 441 2565 725 
Q 2881 1009 2881 1497 
Q 2881 1984 2565 2268 
Q 2250 2553 1709 2553 
Q 1456 2553 1204 2497 
Q 953 2441 691 2322 
L 691 4666 
z
" transform="scale(0.015625)"/>
       </defs>
       <use xlink:href="#DejaVuSans-30"/>
       <use xlink:href="#DejaVuSans-2e" x="63.623047"/>
       <use xlink:href="#DejaVuSans-35" x="95.410156"/>
      </g>
     </g>
    </g>
    <g id="ytick_3">
     <g id="line2d_15">
      <path d="M 30.103125 85.462744 
L 225.403125 85.462744 
" clip-path="url(#p63f417431b)" style="fill: none; stroke: #b0b0b0; stroke-width: 0.8; stroke-linecap: square"/>
     </g>
     <g id="line2d_16">
      <g>
       <use xlink:href="#me46368e211" x="30.103125" y="85.462744" style="stroke: #000000; stroke-width: 0.8"/>
      </g>
     </g>
     <g id="text_9">
      <!-- 1.0 -->
      <g transform="translate(7.2 89.261962)scale(0.1 -0.1)">
       <use xlink:href="#DejaVuSans-31"/>
       <use xlink:href="#DejaVuSans-2e" x="63.623047"/>
       <use xlink:href="#DejaVuSans-30" x="95.410156"/>
      </g>
     </g>
    </g>
    <g id="ytick_4">
     <g id="line2d_17">
      <path d="M 30.103125 57.629874 
L 225.403125 57.629874 
" clip-path="url(#p63f417431b)" style="fill: none; stroke: #b0b0b0; stroke-width: 0.8; stroke-linecap: square"/>
     </g>
     <g id="line2d_18">
      <g>
       <use xlink:href="#me46368e211" x="30.103125" y="57.629874" style="stroke: #000000; stroke-width: 0.8"/>
      </g>
     </g>
     <g id="text_10">
      <!-- 1.5 -->
      <g transform="translate(7.2 61.429093)scale(0.1 -0.1)">
       <use xlink:href="#DejaVuSans-31"/>
       <use xlink:href="#DejaVuSans-2e" x="63.623047"/>
       <use xlink:href="#DejaVuSans-35" x="95.410156"/>
      </g>
     </g>
    </g>
    <g id="ytick_5">
     <g id="line2d_19">
      <path d="M 30.103125 29.797005 
L 225.403125 29.797005 
" clip-path="url(#p63f417431b)" style="fill: none; stroke: #b0b0b0; stroke-width: 0.8; stroke-linecap: square"/>
     </g>
     <g id="line2d_20">
      <g>
       <use xlink:href="#me46368e211" x="30.103125" y="29.797005" style="stroke: #000000; stroke-width: 0.8"/>
      </g>
     </g>
     <g id="text_11">
      <!-- 2.0 -->
      <g transform="translate(7.2 33.596224)scale(0.1 -0.1)">
       <use xlink:href="#DejaVuSans-32"/>
       <use xlink:href="#DejaVuSans-2e" x="63.623047"/>
       <use xlink:href="#DejaVuSans-30" x="95.410156"/>
      </g>
     </g>
    </g>
   </g>
   <g id="line2d_21">
    <path d="M 28.521578 13.5 
L 28.912759 17.437811 
L 29.69512 41.236788 
L 30.103125 49.999692 
L 30.494305 91.243549 
L 31.276666 93.849315 
L 32.075852 96.093629 
L 32.467033 102.409566 
L 32.858213 103.308115 
L 33.249394 103.515713 
L 34.04858 104.720282 
L 34.43976 107.781717 
L 35.222121 108.728859 
L 35.613301 108.814959 
L 36.021307 109.114558 
L 36.412487 111.519353 
L 36.803668 111.774527 
L 37.586029 112.481975 
L 37.994034 112.710303 
L 38.385215 114.217292 
L 39.966761 115.157822 
L 40.357942 116.436304 
L 41.939489 116.869573 
L 42.330669 117.162507 
L 42.72185 117.698582 
L 43.50421 118.159666 
L 43.912216 118.240508 
L 44.303396 119.039295 
L 45.085757 119.10753 
L 45.868118 119.397446 
L 45.884943 119.401238 
L 47.449665 120.481113 
L 47.85767 120.374716 
L 48.248851 121.097704 
L 48.640031 121.109175 
L 49.031212 120.939667 
L 49.422392 121.16894 
L 50.221578 121.306091 
L 51.003939 121.862729 
L 51.39512 122.062082 
L 51.803125 121.988229 
L 52.194305 122.847081 
L 52.585486 122.542931 
L 53.367847 122.407966 
L 53.775852 122.444006 
L 54.167033 122.695963 
L 54.558213 122.753799 
L 54.949394 122.962998 
L 55.340574 122.873392 
L 55.74858 122.981102 
L 56.13976 123.491174 
L 56.922121 123.55678 
L 57.313301 123.601461 
L 57.721307 123.52413 
L 58.112487 123.897511 
L 59.286029 124.05627 
L 59.694034 124.031728 
L 60.085215 124.619788 
L 60.476395 124.630164 
L 60.867575 124.487327 
L 62.449122 124.460877 
L 63.231483 124.82111 
L 63.639489 124.739602 
L 64.030669 125.101916 
L 64.42185 125.238704 
L 64.81303 125.135102 
L 65.612216 125.159215 
L 66.003396 125.569873 
L 66.394577 125.694411 
L 66.785757 125.534094 
L 67.584943 125.609988 
L 67.976124 125.88309 
L 68.758485 126.002936 
L 69.55767 125.897282 
L 70.731212 126.272667 
L 71.530398 126.282327 
L 71.921578 127.0852 
L 72.312759 126.606526 
L 72.703939 126.470255 
L 73.503125 126.490277 
L 73.894305 126.033507 
L 74.285486 126.626328 
L 74.676666 126.796149 
L 75.475852 126.765498 
L 75.867033 127.197575 
L 77.040574 126.955626 
L 77.44858 127.071758 
L 77.83976 126.993457 
L 78.23094 127.309689 
L 78.622121 127.152405 
L 79.421307 127.332279 
L 79.812487 127.2482 
L 80.203668 127.756293 
L 80.594848 127.865886 
L 80.986029 127.640786 
L 81.394034 127.576487 
L 81.785215 128.033933 
L 82.567575 127.907477 
L 82.958756 128.061898 
L 83.366761 127.923897 
L 83.757942 128.384489 
L 84.149122 128.100261 
L 84.540303 128.260308 
L 85.339489 128.192639 
L 85.730669 128.440226 
L 87.312216 128.469714 
L 87.703396 128.356362 
L 88.094577 128.751425 
L 89.676124 128.766644 
L 90.067304 129.209864 
L 90.849665 128.796418 
L 91.25767 128.867786 
L 91.648851 129.225671 
L 92.431212 129.187351 
L 93.230398 129.1596 
L 93.621578 129.700147 
L 94.012759 129.48697 
L 95.1863 129.381473 
L 95.203125 129.368227 
L 95.594305 129.801469 
L 95.985486 129.517068 
L 96.376666 129.415624 
L 97.175852 129.408393 
L 97.567033 129.814547 
L 98.740574 129.885644 
L 99.14858 129.770746 
L 99.53976 130.086196 
L 100.322121 130.092125 
L 101.121307 129.972415 
L 101.512487 130.267574 
L 102.686029 130.126291 
L 103.876395 130.444457 
L 104.267575 130.242107 
L 105.066761 130.381802 
L 105.457942 130.627583 
L 106.240303 130.694537 
L 106.631483 130.612059 
L 107.430669 130.746852 
L 108.21303 130.641578 
L 108.60421 130.827214 
L 109.012216 130.75179 
L 109.403396 131.317759 
L 109.794577 130.980653 
L 110.185757 130.923444 
L 110.576938 130.997814 
L 110.984943 130.925604 
L 111.767304 131.340572 
L 112.95767 131.226873 
L 113.348851 131.537414 
L 114.131212 131.405792 
L 114.930398 131.457922 
L 115.321578 132.190807 
L 116.103939 131.686712 
L 117.294305 131.716523 
L 118.076666 131.889111 
L 118.875852 131.867331 
L 119.267033 132.478406 
L 119.658213 132.048035 
L 120.440574 131.969278 
L 120.84858 132.030912 
L 121.23976 132.326042 
L 121.63094 132.196064 
L 122.413301 132.163704 
L 123.212487 132.13562 
L 123.994848 132.438777 
L 124.794034 132.328324 
L 125.185215 132.57179 
L 125.967575 132.591217 
L 126.766761 132.62141 
L 127.157942 133.353342 
L 127.940303 132.967645 
L 128.331483 132.980883 
L 128.739489 132.86386 
L 129.130669 133.32711 
L 130.30421 132.967354 
L 130.712216 132.989288 
L 131.103396 133.683139 
L 131.494577 133.292569 
L 132.276938 133.055394 
L 132.684943 133.116492 
L 133.076124 133.788735 
L 133.467304 133.805979 
L 134.249665 133.407112 
L 134.65767 133.359058 
L 135.048851 133.537988 
L 136.630398 133.58103 
L 137.021578 133.953254 
L 137.412759 133.752739 
L 138.603125 133.676808 
L 139.385486 134.093131 
L 139.776666 133.947494 
L 140.575852 133.932812 
L 140.967033 134.41029 
L 141.358213 134.426238 
L 142.140574 134.300952 
L 143.722121 134.214964 
L 144.521307 134.334684 
L 144.912487 134.792406 
L 146.086029 134.57577 
L 146.494034 134.559795 
L 146.885215 135.009333 
L 147.667575 134.652978 
L 148.466761 134.663964 
L 148.857942 135.033081 
L 150.439489 134.897916 
L 150.830669 135.358082 
L 151.22185 135.130716 
L 152.00421 135.151811 
L 152.412216 135.055887 
L 152.803396 135.347611 
L 153.194577 135.430311 
L 153.976938 135.178831 
L 154.384943 135.191056 
L 154.776124 135.56403 
L 156.35767 135.50379 
L 156.748851 135.860201 
L 157.140031 135.832603 
L 157.922392 135.573657 
L 158.330398 135.569017 
L 158.721578 135.826373 
L 160.303125 135.824496 
L 160.694305 136.01347 
L 162.275852 135.871639 
L 162.667033 136.244079 
L 163.058213 136.205699 
L 163.840574 135.995084 
L 164.24858 136.047551 
L 164.63976 136.265119 
L 166.221307 136.157763 
L 166.612487 136.698505 
L 167.003668 136.554408 
L 167.394848 136.702848 
L 168.194034 136.370137 
L 170.166761 136.389243 
L 170.557942 136.870786 
L 171.340303 136.84905 
L 172.139489 136.722309 
L 172.92185 137.136487 
L 174.112216 136.830693 
L 174.503396 137.226783 
L 176.084943 136.975796 
L 176.476124 137.289597 
L 178.05767 137.011912 
L 178.448851 137.37254 
L 178.840031 137.408051 
L 179.622392 137.2352 
L 180.030398 137.214607 
L 180.421578 137.579926 
L 181.59512 137.359625 
L 182.003125 137.361353 
L 182.394305 137.709764 
L 183.176666 137.526916 
L 187.921307 137.688512 
L 188.312487 138.200163 
L 188.703668 137.975464 
L 189.486029 137.941388 
L 189.894034 137.867355 
L 190.285215 138.028685 
L 191.067575 137.976907 
L 191.458756 137.997241 
L 191.866761 137.891013 
L 192.257942 138.237323 
L 193.040303 137.979762 
L 193.839489 137.903154 
L 194.230669 138.611984 
L 195.01303 138.273301 
L 195.812216 138.18925 
L 196.203396 138.65721 
L 196.594577 138.39094 
L 198.958485 138.276731 
L 199.349665 138.354688 
L 200.148851 138.363997 
L 200.540031 138.577735 
L 200.931212 138.429064 
L 201.730398 138.326448 
L 202.121578 138.512997 
L 203.703125 138.495773 
L 204.094305 138.922014 
L 204.485486 138.938392 
L 204.876666 138.81247 
L 205.675852 138.78022 
L 206.067033 138.644844 
L 206.849394 138.651697 
L 207.64858 138.641435 
L 208.03976 138.765597 
L 208.822121 138.66432 
L 209.621307 138.637936 
L 210.012487 139.213294 
L 211.186029 138.91882 
L 211.594034 138.902303 
L 211.985215 139.279287 
L 212.376395 139.023358 
L 213.566761 138.914936 
L 213.957942 139.100198 
L 215.539489 139.070337 
L 215.930669 139.218493 
L 216.71303 139.190269 
L 217.10421 139.074846 
L 219.484943 139.034871 
L 219.876124 139.5 
L 220.267304 139.228437 
L 221.049665 139.284249 
L 221.45767 139.273579 
L 221.848851 139.448417 
L 223.022392 139.220325 
L 223.430398 139.23295 
L 223.821578 139.470192 
L 224.212759 139.336232 
L 224.99512 139.353813 
L 225.403125 139.214035 
L 225.403125 139.214035 
" clip-path="url(#p63f417431b)" style="fill: none; stroke: #1f77b4; stroke-width: 1.5; stroke-linecap: square"/>
   </g>
   <g id="line2d_22">
    <path d="M 28.521578 134.268466 
L 28.912759 131.895283 
L 29.69512 123.02683 
L 30.103125 119.683256 
L 30.494305 103.80756 
L 32.075852 102.23112 
L 32.467033 99.973058 
L 32.858213 99.620004 
L 33.249394 99.508554 
L 34.04858 99.077656 
L 34.43976 98.051131 
L 35.222121 97.405813 
L 36.021307 97.288002 
L 36.412487 96.578122 
L 36.803668 96.538374 
L 37.586029 96.133881 
L 37.994034 96.029956 
L 38.385215 95.189284 
L 38.776395 95.18227 
L 39.966761 94.878603 
L 40.357942 94.497203 
L 42.330669 94.29145 
L 43.11303 93.889294 
L 43.912216 93.816315 
L 44.303396 93.561959 
L 47.058485 93.228389 
L 47.85767 93.119566 
L 48.248851 92.74362 
L 49.031212 92.880789 
L 49.830398 92.774438 
L 50.221578 92.846497 
L 50.612759 92.612686 
L 57.313301 91.919436 
L 57.721307 91.92368 
L 58.112487 91.705499 
L 58.503668 91.747585 
L 59.286029 91.64237 
L 59.694034 91.668546 
L 60.085215 91.55586 
L 60.867575 91.56833 
L 64.81303 91.343871 
L 66.003396 91.322049 
L 66.394577 91.151367 
L 67.584943 91.125805 
L 67.976124 90.929246 
L 69.149665 90.984192 
L 69.55767 90.998701 
L 69.948851 90.863779 
L 71.530398 90.874381 
L 71.921578 90.695435 
L 72.312759 90.83806 
L 73.894305 90.896513 
L 74.676666 90.6892 
L 75.475852 90.718517 
L 75.867033 90.569177 
L 77.040574 90.636983 
L 79.421307 90.501421 
L 79.812487 90.564501 
L 80.203668 90.363424 
L 80.594848 90.310426 
L 81.394034 90.407717 
L 83.366761 90.257419 
L 83.757942 90.138965 
L 84.149122 90.248856 
L 84.931483 90.16936 
L 85.339489 90.203609 
L 86.12185 90.085188 
L 86.90421 90.123767 
L 88.876938 89.948409 
L 89.284943 89.98744 
L 89.676124 89.825658 
L 90.458485 89.855274 
L 91.25767 89.920642 
L 92.040031 89.827996 
L 93.230398 89.873326 
L 93.621578 89.722781 
L 95.203125 89.762922 
L 95.594305 89.66199 
L 96.376666 89.750839 
L 98.740574 89.541578 
L 99.14858 89.577369 
L 99.93094 89.521704 
L 101.121307 89.554175 
L 101.512487 89.339331 
L 102.686029 89.430517 
L 103.094034 89.389034 
L 103.485215 89.217749 
L 104.267575 89.418827 
L 107.430669 89.236454 
L 107.82185 89.344007 
L 109.012216 89.260075 
L 109.403396 89.054082 
L 109.794577 89.196706 
L 111.376124 89.026024 
L 112.158485 88.98238 
L 112.95767 89.074522 
L 113.348851 88.974586 
L 114.930398 89.031845 
L 115.321578 88.75948 
L 116.903125 88.938141 
L 117.294305 88.979262 
L 118.467847 88.830792 
L 118.875852 88.838871 
L 119.267033 88.572431 
L 119.658213 88.782861 
L 120.84858 88.814749 
L 121.23976 88.72207 
L 122.022121 88.751686 
L 123.212487 88.768832 
L 124.386029 88.667124 
L 124.794034 88.695995 
L 125.185215 88.558402 
L 126.766761 88.568892 
L 127.157942 88.291858 
L 127.940303 88.4867 
L 130.712216 88.447355 
L 131.103396 88.174952 
L 132.276938 88.435651 
L 132.684943 88.402822 
L 133.076124 88.067399 
L 134.65767 88.276647 
L 135.048851 88.1656 
L 135.831212 88.223273 
L 138.994305 88.282505 
L 139.385486 88.107147 
L 140.575852 88.131916 
L 140.967033 87.95517 
L 143.33094 87.997256 
L 144.113301 87.998425 
L 146.494034 87.924097 
L 146.885215 87.735387 
L 148.466761 87.870287 
L 148.857942 87.641863 
L 150.031483 87.743571 
L 150.439489 87.772872 
L 150.830669 87.641863 
L 152.412216 87.688445 
L 153.194577 87.564705 
L 154.384943 87.66989 
L 154.776124 87.482871 
L 160.303125 87.43795 
L 160.694305 87.272441 
L 162.275852 87.372078 
L 162.667033 87.174241 
L 166.221307 87.340535 
L 166.612487 87.071364 
L 169.367575 87.256854 
L 170.166761 87.238481 
L 170.557942 86.954458 
L 176.084943 87.013034 
L 176.476124 86.851581 
L 177.649665 86.955627 
L 178.05767 86.972213 
L 178.448851 86.832877 
L 182.003125 86.849748 
L 182.394305 86.734676 
L 183.975852 86.777383 
L 184.367033 86.701942 
L 185.540574 86.830538 
L 191.067575 86.624005 
L 191.866761 86.668835 
L 192.257942 86.496189 
L 193.839489 86.649352 
L 194.230669 86.351226 
L 195.01303 86.510217 
L 195.812216 86.549153 
L 196.203396 86.323168 
L 196.985757 86.450985 
L 198.176124 86.510217 
L 198.567304 86.592051 
L 200.540031 86.365254 
L 201.322392 86.4693 
L 201.730398 86.520393 
L 202.512759 86.44475 
L 203.703125 86.420194 
L 204.094305 86.23432 
L 206.067033 86.40734 
L 206.849394 86.374607 
L 209.621307 86.371023 
L 210.012487 86.09871 
L 211.186029 86.249518 
L 211.594034 86.261547 
L 211.985215 86.084681 
L 212.767575 86.23432 
L 213.566761 86.259691 
L 213.957942 86.145472 
L 215.539489 86.189182 
L 216.71303 86.167294 
L 218.685757 86.238996 
L 219.484943 86.24392 
L 219.876124 86.005185 
L 220.267304 86.131443 
L 222.240031 86.094034 
L 223.430398 86.130733 
L 223.821578 86.037919 
L 224.212759 86.119753 
L 224.99512 86.083512 
L 225.403125 86.127949 
L 225.403125 86.127949 
" clip-path="url(#p63f417431b)" style="fill: none; stroke-dasharray: 5.55,2.4; stroke-dashoffset: 0; stroke: #bf00bf; stroke-width: 1.5"/>
   </g>
   <g id="line2d_23">
    <path d="M 30.103125 100.909986 
L 32.075852 98.521926 
L 34.04858 96.512393 
L 36.021307 95.571642 
L 37.994034 95.220948 
L 39.966761 93.69014 
L 41.939489 93.584375 
L 43.912216 93.122349 
L 45.884943 92.704856 
L 47.85767 92.626924 
L 49.830398 92.554559 
L 51.803125 91.842037 
L 53.775852 92.482193 
L 55.74858 91.881003 
L 57.721307 91.680607 
L 59.694034 91.585975 
L 61.666761 91.418978 
L 63.639489 91.274247 
L 65.612216 91.49691 
L 67.584943 91.213014 
L 69.55767 91.084983 
L 71.530398 91.018184 
L 73.503125 90.956952 
L 75.475852 90.973652 
L 77.44858 91.05715 
L 79.421307 90.840054 
L 81.394034 90.656357 
L 83.366761 90.483793 
L 85.339489 90.712023 
L 87.312216 90.50606 
L 89.284943 90.444827 
L 91.25767 90.739856 
L 93.230398 91.140649 
L 95.203125 90.439261 
L 97.175852 90.450394 
L 99.14858 90.361329 
L 101.121307 90.288963 
L 103.094034 90.762122 
L 105.066761 90.745422 
L 107.039489 90.188765 
L 109.012216 90.595125 
L 110.984943 90.361329 
L 112.95767 90.194331 
L 114.930398 90.110833 
L 116.903125 90.728723 
L 118.875852 89.865904 
L 120.84858 90.166499 
L 122.821307 89.943836 
L 124.794034 90.049601 
L 126.766761 89.910436 
L 128.739489 89.982802 
L 130.712216 90.0663 
L 132.684943 90.183198 
L 134.65767 89.85477 
L 136.630398 89.865904 
L 138.603125 90.222164 
L 140.575852 89.799105 
L 142.54858 89.954969 
L 144.521307 90.077433 
L 146.494034 89.587575 
L 148.466761 89.648807 
L 150.439489 89.765705 
L 152.412216 89.815804 
L 154.384943 89.838071 
L 156.35767 89.860337 
L 158.330398 89.682207 
L 160.303125 89.598708 
L 162.275852 89.698906 
L 164.24858 89.531909 
L 166.221307 89.671073 
L 168.194034 89.576442 
L 170.166761 89.771272 
L 172.139489 89.732306 
L 174.112216 89.787972 
L 176.084943 89.838071 
L 178.05767 89.548609 
L 180.030398 89.626541 
L 182.003125 89.654374 
L 183.975852 89.576442 
L 185.94858 89.620974 
L 187.921307 89.48181 
L 189.894034 89.492943 
L 191.866761 89.682207 
L 193.839489 89.598708 
L 195.812216 89.749006 
L 197.784943 89.565309 
L 199.75767 89.598708 
L 201.730398 89.782405 
L 203.703125 89.593141 
L 205.675852 90.055167 
L 207.64858 89.654374 
L 209.621307 89.620974 
L 211.594034 89.509643 
L 213.566761 90.322363 
L 215.539489 89.565309 
L 217.512216 89.648807 
L 219.484943 89.582008 
L 221.45767 89.743439 
L 223.430398 89.531909 
L 225.403125 89.765705 
" clip-path="url(#p63f417431b)" style="fill: none; stroke-dasharray: 9.6,2.4,1.5,2.4; stroke-dashoffset: 0; stroke: #008000; stroke-width: 1.5"/>
   </g>
   <g id="patch_3">
    <path d="M 30.103125 145.8 
L 30.103125 7.2 
" style="fill: none; stroke: #000000; stroke-width: 0.8; stroke-linejoin: miter; stroke-linecap: square"/>
   </g>
   <g id="patch_4">
    <path d="M 225.403125 145.8 
L 225.403125 7.2 
" style="fill: none; stroke: #000000; stroke-width: 0.8; stroke-linejoin: miter; stroke-linecap: square"/>
   </g>
   <g id="patch_5">
    <path d="M 30.103125 145.8 
L 225.403125 145.8 
" style="fill: none; stroke: #000000; stroke-width: 0.8; stroke-linejoin: miter; stroke-linecap: square"/>
   </g>
   <g id="patch_6">
    <path d="M 30.103125 7.2 
L 225.403125 7.2 
" style="fill: none; stroke: #000000; stroke-width: 0.8; stroke-linejoin: miter; stroke-linecap: square"/>
   </g>
   <g id="legend_1">
    <g id="patch_7">
     <path d="M 140.634375 59.234375 
L 218.403125 59.234375 
Q 220.403125 59.234375 220.403125 57.234375 
L 220.403125 14.2 
Q 220.403125 12.2 218.403125 12.2 
L 140.634375 12.2 
Q 138.634375 12.2 138.634375 14.2 
L 138.634375 57.234375 
Q 138.634375 59.234375 140.634375 59.234375 
z
" style="fill: #ffffff; opacity: 0.8; stroke: #cccccc; stroke-linejoin: miter"/>
    </g>
    <g id="line2d_24">
     <path d="M 142.634375 20.298438 
L 152.634375 20.298438 
L 162.634375 20.298438 
" style="fill: none; stroke: #1f77b4; stroke-width: 1.5; stroke-linecap: square"/>
    </g>
    <g id="text_12">
     <!-- train loss -->
     <g transform="translate(170.634375 23.798438)scale(0.1 -0.1)">
      <defs>
       <path id="DejaVuSans-74" d="M 1172 4494 
L 1172 3500 
L 2356 3500 
L 2356 3053 
L 1172 3053 
L 1172 1153 
Q 1172 725 1289 603 
Q 1406 481 1766 481 
L 2356 481 
L 2356 0 
L 1766 0 
Q 1100 0 847 248 
Q 594 497 594 1153 
L 594 3053 
L 172 3053 
L 172 3500 
L 594 3500 
L 594 4494 
L 1172 4494 
z
" transform="scale(0.015625)"/>
       <path id="DejaVuSans-72" d="M 2631 2963 
Q 2534 3019 2420 3045 
Q 2306 3072 2169 3072 
Q 1681 3072 1420 2755 
Q 1159 2438 1159 1844 
L 1159 0 
L 581 0 
L 581 3500 
L 1159 3500 
L 1159 2956 
Q 1341 3275 1631 3429 
Q 1922 3584 2338 3584 
Q 2397 3584 2469 3576 
Q 2541 3569 2628 3553 
L 2631 2963 
z
" transform="scale(0.015625)"/>
       <path id="DejaVuSans-61" d="M 2194 1759 
Q 1497 1759 1228 1600 
Q 959 1441 959 1056 
Q 959 750 1161 570 
Q 1363 391 1709 391 
Q 2188 391 2477 730 
Q 2766 1069 2766 1631 
L 2766 1759 
L 2194 1759 
z
M 3341 1997 
L 3341 0 
L 2766 0 
L 2766 531 
Q 2569 213 2275 61 
Q 1981 -91 1556 -91 
Q 1019 -91 701 211 
Q 384 513 384 1019 
Q 384 1609 779 1909 
Q 1175 2209 1959 2209 
L 2766 2209 
L 2766 2266 
Q 2766 2663 2505 2880 
Q 2244 3097 1772 3097 
Q 1472 3097 1187 3025 
Q 903 2953 641 2809 
L 641 3341 
Q 956 3463 1253 3523 
Q 1550 3584 1831 3584 
Q 2591 3584 2966 3190 
Q 3341 2797 3341 1997 
z
" transform="scale(0.015625)"/>
       <path id="DejaVuSans-69" d="M 603 3500 
L 1178 3500 
L 1178 0 
L 603 0 
L 603 3500 
z
M 603 4863 
L 1178 4863 
L 1178 4134 
L 603 4134 
L 603 4863 
z
" transform="scale(0.015625)"/>
       <path id="DejaVuSans-6e" d="M 3513 2113 
L 3513 0 
L 2938 0 
L 2938 2094 
Q 2938 2591 2744 2837 
Q 2550 3084 2163 3084 
Q 1697 3084 1428 2787 
Q 1159 2491 1159 1978 
L 1159 0 
L 581 0 
L 581 3500 
L 1159 3500 
L 1159 2956 
Q 1366 3272 1645 3428 
Q 1925 3584 2291 3584 
Q 2894 3584 3203 3211 
Q 3513 2838 3513 2113 
z
" transform="scale(0.015625)"/>
       <path id="DejaVuSans-20" transform="scale(0.015625)"/>
       <path id="DejaVuSans-6c" d="M 603 4863 
L 1178 4863 
L 1178 0 
L 603 0 
L 603 4863 
z
" transform="scale(0.015625)"/>
       <path id="DejaVuSans-73" d="M 2834 3397 
L 2834 2853 
Q 2591 2978 2328 3040 
Q 2066 3103 1784 3103 
Q 1356 3103 1142 2972 
Q 928 2841 928 2578 
Q 928 2378 1081 2264 
Q 1234 2150 1697 2047 
L 1894 2003 
Q 2506 1872 2764 1633 
Q 3022 1394 3022 966 
Q 3022 478 2636 193 
Q 2250 -91 1575 -91 
Q 1294 -91 989 -36 
Q 684 19 347 128 
L 347 722 
Q 666 556 975 473 
Q 1284 391 1588 391 
Q 1994 391 2212 530 
Q 2431 669 2431 922 
Q 2431 1156 2273 1281 
Q 2116 1406 1581 1522 
L 1381 1569 
Q 847 1681 609 1914 
Q 372 2147 372 2553 
Q 372 3047 722 3315 
Q 1072 3584 1716 3584 
Q 2034 3584 2315 3537 
Q 2597 3491 2834 3397 
z
" transform="scale(0.015625)"/>
      </defs>
      <use xlink:href="#DejaVuSans-74"/>
      <use xlink:href="#DejaVuSans-72" x="39.208984"/>
      <use xlink:href="#DejaVuSans-61" x="80.322266"/>
      <use xlink:href="#DejaVuSans-69" x="141.601562"/>
      <use xlink:href="#DejaVuSans-6e" x="169.384766"/>
      <use xlink:href="#DejaVuSans-20" x="232.763672"/>
      <use xlink:href="#DejaVuSans-6c" x="264.550781"/>
      <use xlink:href="#DejaVuSans-6f" x="292.333984"/>
      <use xlink:href="#DejaVuSans-73" x="353.515625"/>
      <use xlink:href="#DejaVuSans-73" x="405.615234"/>
     </g>
    </g>
    <g id="line2d_25">
     <path d="M 142.634375 34.976563 
L 152.634375 34.976563 
L 162.634375 34.976563 
" style="fill: none; stroke-dasharray: 5.55,2.4; stroke-dashoffset: 0; stroke: #bf00bf; stroke-width: 1.5"/>
    </g>
    <g id="text_13">
     <!-- train acc -->
     <g transform="translate(170.634375 38.476563)scale(0.1 -0.1)">
      <use xlink:href="#DejaVuSans-74"/>
      <use xlink:href="#DejaVuSans-72" x="39.208984"/>
      <use xlink:href="#DejaVuSans-61" x="80.322266"/>
      <use xlink:href="#DejaVuSans-69" x="141.601562"/>
      <use xlink:href="#DejaVuSans-6e" x="169.384766"/>
      <use xlink:href="#DejaVuSans-20" x="232.763672"/>
      <use xlink:href="#DejaVuSans-61" x="264.550781"/>
      <use xlink:href="#DejaVuSans-63" x="325.830078"/>
      <use xlink:href="#DejaVuSans-63" x="380.810547"/>
     </g>
    </g>
    <g id="line2d_26">
     <path d="M 142.634375 49.654688 
L 152.634375 49.654688 
L 162.634375 49.654688 
" style="fill: none; stroke-dasharray: 9.6,2.4,1.5,2.4; stroke-dashoffset: 0; stroke: #008000; stroke-width: 1.5"/>
    </g>
    <g id="text_14">
     <!-- test acc -->
     <g transform="translate(170.634375 53.154688)scale(0.1 -0.1)">
      <use xlink:href="#DejaVuSans-74"/>
      <use xlink:href="#DejaVuSans-65" x="39.208984"/>
      <use xlink:href="#DejaVuSans-73" x="100.732422"/>
      <use xlink:href="#DejaVuSans-74" x="152.832031"/>
      <use xlink:href="#DejaVuSans-20" x="192.041016"/>
      <use xlink:href="#DejaVuSans-61" x="223.828125"/>
      <use xlink:href="#DejaVuSans-63" x="285.107422"/>
      <use xlink:href="#DejaVuSans-63" x="340.087891"/>
     </g>
    </g>
   </g>
  </g>
 </g>
 <defs>
  <clipPath id="p63f417431b">
   <rect x="30.103125" y="7.2" width="195.3" height="138.6"/>
  </clipPath>
 </defs>
</svg>
